<svg width="55" height="65" viewBox="0 0 55 65" fill="none" xmlns="http://www.w3.org/2000/svg">
<g filter="url(#filter0_d_559_808)">
<ellipse cx="27.1798" cy="22.1738" rx="23.1798" ry="22.1738" fill="#F9F7F7"/>
</g>
<path d="M28.7375 23.2469L25.8625 26.024C25.7453 26.1367 25.6523 26.2708 25.5889 26.4186C25.5254 26.5664 25.4928 26.7249 25.4928 26.885C25.4928 27.045 25.5254 27.2036 25.5889 27.3513C25.6523 27.4991 25.7453 27.6332 25.8625 27.746C25.9787 27.8596 26.117 27.9498 26.2693 28.0114C26.4216 28.073 26.585 28.1047 26.75 28.1047C26.915 28.1047 27.0784 28.073 27.2307 28.0114C27.383 27.9498 27.5213 27.8596 27.6375 27.746L32.6375 22.8952C32.7513 22.7799 32.8405 22.6439 32.9 22.495C33.025 22.1998 33.025 21.8686 32.9 21.5734C32.8405 21.4245 32.7513 21.2885 32.6375 21.1732L27.6375 16.3225C27.521 16.2094 27.3826 16.1197 27.2303 16.0585C27.078 15.9973 26.9148 15.9658 26.75 15.9658C26.5852 15.9658 26.422 15.9973 26.2697 16.0585C26.1174 16.1197 25.979 16.2094 25.8625 16.3225C25.746 16.4355 25.6535 16.5698 25.5904 16.7175C25.5273 16.8652 25.4949 17.0236 25.4949 17.1835C25.4949 17.3434 25.5273 17.5017 25.5904 17.6494C25.6535 17.7972 25.746 17.9314 25.8625 18.0445L28.7375 20.8215H16.75C16.4185 20.8215 16.1005 20.9493 15.8661 21.1767C15.6317 21.4041 15.5 21.7126 15.5 22.0342C15.5 22.3558 15.6317 22.6643 15.8661 22.8917C16.1005 23.1191 16.4185 23.2469 16.75 23.2469H28.7375ZM28 9.90735C25.6639 9.89723 23.3716 10.5224 21.3831 11.7121C19.3946 12.9017 17.7896 14.6081 16.75 16.6378C16.6008 16.9272 16.5763 17.2623 16.6818 17.5693C16.7872 17.8764 17.0141 18.1302 17.3125 18.2749C17.6109 18.4196 17.9563 18.4434 18.2727 18.3411C18.5892 18.2388 18.8508 18.0186 19 17.7292C19.7902 16.181 20.9923 14.8656 22.4819 13.9189C23.9716 12.9722 25.6948 12.4287 27.4734 12.3444C29.2521 12.26 31.0217 12.638 32.5994 13.4393C34.1771 14.2406 35.5056 15.436 36.4476 16.9021C37.3897 18.3682 37.9111 20.0518 37.958 21.7788C38.0049 23.5058 37.5756 25.2137 36.7144 26.7259C35.8532 28.2381 34.5914 29.4997 33.0594 30.3804C31.5274 31.2612 29.7808 31.729 28 31.7357C26.1361 31.7435 24.3077 31.2414 22.7246 30.2868C21.1415 29.3323 19.8679 27.9641 19.05 26.3393C18.9008 26.0498 18.6392 25.8297 18.3227 25.7273C18.0063 25.625 17.6609 25.6488 17.3625 25.7935C17.0641 25.9383 16.8372 26.1921 16.7318 26.4991C16.6263 26.8061 16.6508 27.1412 16.8 27.4307C17.791 29.3655 19.2969 31.0084 21.1618 32.1893C23.0268 33.3702 25.1831 34.0464 27.4076 34.1477C29.6322 34.2491 31.8444 33.772 33.8152 32.7659C35.786 31.7598 37.444 30.2611 38.6176 28.4249C39.7912 26.5886 40.4378 24.4816 40.4906 22.3216C40.5434 20.1617 40.0004 18.0272 38.9178 16.1391C37.8352 14.251 36.2523 12.6778 34.3328 11.5822C32.4134 10.4866 30.227 9.90836 28 9.90735Z" fill="#00B2FF"/>
<path d="M11.3594 59.5984V61.5671H5.61719V59.5984H11.3594ZM6.48438 50.1921V61.5671H3.9375V50.1921H6.48438ZM12.1328 57.4265V57.2625C12.1328 56.6427 12.2214 56.0723 12.3984 55.5515C12.5755 55.0255 12.8359 54.5697 13.1797 54.1843C13.5234 53.7989 13.9453 53.4994 14.4453 53.2859C14.9453 53.0671 15.5182 52.9578 16.1641 52.9578C16.8203 52.9578 17.3984 53.0671 17.8984 53.2859C18.4036 53.4994 18.8281 53.7989 19.1719 54.1843C19.5156 54.5697 19.776 55.0255 19.9531 55.5515C20.1302 56.0723 20.2188 56.6427 20.2188 57.2625V57.4265C20.2188 58.0411 20.1302 58.6114 19.9531 59.1375C19.776 59.6583 19.5156 60.114 19.1719 60.5046C18.8281 60.8901 18.4062 61.1895 17.9062 61.4031C17.4062 61.6166 16.8307 61.7234 16.1797 61.7234C15.5339 61.7234 14.9583 61.6166 14.4531 61.4031C13.9479 61.1895 13.5234 60.8901 13.1797 60.5046C12.8359 60.114 12.5755 59.6583 12.3984 59.1375C12.2214 58.6114 12.1328 58.0411 12.1328 57.4265ZM14.5781 57.2625V57.4265C14.5781 57.7598 14.6042 58.0723 14.6562 58.364C14.7135 58.6557 14.8047 58.9109 14.9297 59.1296C15.0547 59.3484 15.2188 59.5203 15.4219 59.6453C15.6302 59.7651 15.8828 59.825 16.1797 59.825C16.4766 59.825 16.7266 59.7651 16.9297 59.6453C17.1328 59.5203 17.2969 59.3484 17.4219 59.1296C17.5469 58.9109 17.6354 58.6557 17.6875 58.364C17.7448 58.0723 17.7734 57.7598 17.7734 57.4265V57.2625C17.7734 56.9343 17.7448 56.627 17.6875 56.3406C17.6354 56.0489 17.5469 55.7911 17.4219 55.5671C17.2969 55.3432 17.1302 55.1687 16.9219 55.0437C16.7188 54.9187 16.4661 54.8562 16.1641 54.8562C15.8724 54.8562 15.625 54.9187 15.4219 55.0437C15.2188 55.1687 15.0547 55.3432 14.9297 55.5671C14.8047 55.7911 14.7135 56.0489 14.6562 56.3406C14.6042 56.627 14.5781 56.9343 14.5781 57.2625ZM26.8281 53.114H29.0469V61.2625C29.0469 62.0385 28.8698 62.6973 28.5156 63.239C28.1667 63.7807 27.6797 64.1921 27.0547 64.4734C26.4297 64.7546 25.6979 64.8953 24.8594 64.8953C24.4948 64.8953 24.1146 64.8458 23.7188 64.7468C23.3229 64.6531 22.9505 64.5098 22.6016 64.3171C22.2526 64.1296 21.9609 63.8901 21.7266 63.5984L22.7656 62.1609C23.0052 62.4317 23.2917 62.6505 23.625 62.8171C23.9583 62.989 24.3385 63.075 24.7656 63.075C25.1562 63.075 25.487 63.0046 25.7578 62.864C26.0286 62.7234 26.2344 62.5177 26.375 62.2468C26.5208 61.976 26.5938 61.6479 26.5938 61.2625V55.0906L26.8281 53.114ZM21.1797 57.4421V57.2781C21.1797 56.6375 21.2578 56.0541 21.4141 55.5281C21.5703 54.9968 21.7969 54.5411 22.0938 54.1609C22.3958 53.7755 22.7578 53.4786 23.1797 53.2703C23.6068 53.0619 24.0859 52.9578 24.6172 52.9578C25.1901 52.9578 25.6641 53.0671 26.0391 53.2859C26.4141 53.4994 26.7188 53.8015 26.9531 54.1921C27.1875 54.5776 27.3724 55.0333 27.5078 55.5593C27.6432 56.0802 27.7526 56.6453 27.8359 57.2546V57.5359C27.7526 58.1192 27.6328 58.6635 27.4766 59.1687C27.3203 59.6739 27.1172 60.1192 26.8672 60.5046C26.6172 60.8848 26.3047 61.1843 25.9297 61.4031C25.5599 61.6166 25.1172 61.7234 24.6016 61.7234C24.0755 61.7234 23.6016 61.6166 23.1797 61.4031C22.7578 61.1895 22.3958 60.8901 22.0938 60.5046C21.7969 60.1192 21.5703 59.6661 21.4141 59.1453C21.2578 58.6244 21.1797 58.0567 21.1797 57.4421ZM23.6172 57.2781V57.4421C23.6172 57.7755 23.6484 58.0854 23.7109 58.3718C23.7786 58.6583 23.8776 58.9109 24.0078 59.1296C24.1432 59.3484 24.3099 59.5203 24.5078 59.6453C24.7109 59.7651 24.9479 59.825 25.2188 59.825C25.6146 59.825 25.9349 59.7416 26.1797 59.575C26.4297 59.4031 26.612 59.1661 26.7266 58.864C26.8464 58.5619 26.9089 58.2104 26.9141 57.8093V56.989C26.9141 56.6557 26.8802 56.3562 26.8125 56.0906C26.7448 55.825 26.6432 55.601 26.5078 55.4187C26.3776 55.2364 26.2057 55.0984 25.9922 55.0046C25.7839 54.9057 25.5312 54.8562 25.2344 54.8562C24.9688 54.8562 24.7344 54.9187 24.5312 55.0437C24.3281 55.1635 24.1589 55.3328 24.0234 55.5515C23.888 55.7703 23.7865 56.0281 23.7188 56.325C23.651 56.6166 23.6172 56.9343 23.6172 57.2781ZM30.3203 57.4265V57.2625C30.3203 56.6427 30.4089 56.0723 30.5859 55.5515C30.763 55.0255 31.0234 54.5697 31.3672 54.1843C31.7109 53.7989 32.1328 53.4994 32.6328 53.2859C33.1328 53.0671 33.7057 52.9578 34.3516 52.9578C35.0078 52.9578 35.5859 53.0671 36.0859 53.2859C36.5911 53.4994 37.0156 53.7989 37.3594 54.1843C37.7031 54.5697 37.9635 55.0255 38.1406 55.5515C38.3177 56.0723 38.4062 56.6427 38.4062 57.2625V57.4265C38.4062 58.0411 38.3177 58.6114 38.1406 59.1375C37.9635 59.6583 37.7031 60.114 37.3594 60.5046C37.0156 60.8901 36.5938 61.1895 36.0938 61.4031C35.5938 61.6166 35.0182 61.7234 34.3672 61.7234C33.7214 61.7234 33.1458 61.6166 32.6406 61.4031C32.1354 61.1895 31.7109 60.8901 31.3672 60.5046C31.0234 60.114 30.763 59.6583 30.5859 59.1375C30.4089 58.6114 30.3203 58.0411 30.3203 57.4265ZM32.7656 57.2625V57.4265C32.7656 57.7598 32.7917 58.0723 32.8438 58.364C32.901 58.6557 32.9922 58.9109 33.1172 59.1296C33.2422 59.3484 33.4062 59.5203 33.6094 59.6453C33.8177 59.7651 34.0703 59.825 34.3672 59.825C34.6641 59.825 34.9141 59.7651 35.1172 59.6453C35.3203 59.5203 35.4844 59.3484 35.6094 59.1296C35.7344 58.9109 35.8229 58.6557 35.875 58.364C35.9323 58.0723 35.9609 57.7598 35.9609 57.4265V57.2625C35.9609 56.9343 35.9323 56.627 35.875 56.3406C35.8229 56.0489 35.7344 55.7911 35.6094 55.5671C35.4844 55.3432 35.3177 55.1687 35.1094 55.0437C34.9062 54.9187 34.6536 54.8562 34.3516 54.8562C34.0599 54.8562 33.8125 54.9187 33.6094 55.0437C33.4062 55.1687 33.2422 55.3432 33.1172 55.5671C32.9922 55.7911 32.901 56.0489 32.8438 56.3406C32.7917 56.627 32.7656 56.9343 32.7656 57.2625ZM44.6484 59.5281V53.114H47.1016V61.5671H44.8047L44.6484 59.5281ZM44.9062 57.8015L45.5781 57.7859C45.5781 58.3536 45.5104 58.877 45.375 59.3562C45.2448 59.8354 45.0469 60.252 44.7812 60.6062C44.5208 60.9604 44.1953 61.2364 43.8047 61.4343C43.4193 61.627 42.9688 61.7234 42.4531 61.7234C42.0365 61.7234 41.6536 61.6661 41.3047 61.5515C40.9609 61.4317 40.6641 61.2468 40.4141 60.9968C40.1641 60.7416 39.9714 60.4161 39.8359 60.0203C39.7005 59.6192 39.6328 59.1401 39.6328 58.5828V53.114H42.0703V58.5984C42.0703 58.8171 42.0964 59.0046 42.1484 59.1609C42.2057 59.3119 42.2812 59.4369 42.375 59.5359C42.474 59.6348 42.5938 59.7078 42.7344 59.7546C42.8802 59.8015 43.0391 59.825 43.2109 59.825C43.6432 59.825 43.9818 59.7364 44.2266 59.5593C44.4766 59.377 44.651 59.1348 44.75 58.8328C44.8542 58.5255 44.9062 58.1817 44.9062 57.8015ZM52.9844 53.114V54.825H47.9688V53.114H52.9844ZM49.1172 51.0203H51.5625V58.9187C51.5625 59.1531 51.5911 59.3328 51.6484 59.4578C51.7057 59.5828 51.7995 59.6713 51.9297 59.7234C52.0599 59.7703 52.2266 59.7937 52.4297 59.7937C52.5755 59.7937 52.7005 59.7885 52.8047 59.7781C52.9089 59.7677 53.0052 59.7546 53.0938 59.739V61.5046C52.8854 61.5723 52.6641 61.6244 52.4297 61.6609C52.1953 61.7026 51.9401 61.7234 51.6641 61.7234C51.138 61.7234 50.6823 61.6375 50.2969 61.4656C49.9167 61.2937 49.625 61.0229 49.4219 60.6531C49.2188 60.2781 49.1172 59.7911 49.1172 59.1921V51.0203Z" fill="#093374"/>
<defs>
<filter id="filter0_d_559_808" x="0" y="0" width="54.3596" height="52.3474" filterUnits="userSpaceOnUse" color-interpolation-filters="sRGB">
<feFlood flood-opacity="0" result="BackgroundImageFix"/>
<feColorMatrix in="SourceAlpha" type="matrix" values="0 0 0 0 0 0 0 0 0 0 0 0 0 0 0 0 0 0 127 0" result="hardAlpha"/>
<feOffset dy="4"/>
<feGaussianBlur stdDeviation="2"/>
<feComposite in2="hardAlpha" operator="out"/>
<feColorMatrix type="matrix" values="0 0 0 0 0 0 0 0 0 0 0 0 0 0 0 0 0 0 0.25 0"/>
<feBlend mode="normal" in2="BackgroundImageFix" result="effect1_dropShadow_559_808"/>
<feBlend mode="normal" in="SourceGraphic" in2="effect1_dropShadow_559_808" result="shape"/>
</filter>
</defs>
</svg>
