<svg width="70" height="28" viewBox="0 0 70 28" fill="none" xmlns="http://www.w3.org/2000/svg">
<g filter="url(#filter0_d_655_886)">
<rect x="4" width="62" height="20" rx="10" fill="url(#paint0_linear_655_886)"/>
</g>
<path d="M20.02 6.24217L18.07 13.2222H16.42L15.11 8.25217L13.74 13.2222L12.1 13.2322L10.22 6.24217H11.72L12.95 11.6622L14.37 6.24217H15.93L17.27 11.6322L18.51 6.24217H20.02ZM21.6441 7.02217C21.3975 7.02217 21.1908 6.9455 21.0241 6.79217C20.8641 6.63217 20.7841 6.4355 20.7841 6.20217C20.7841 5.96883 20.8641 5.7755 21.0241 5.62217C21.1908 5.46217 21.3975 5.38217 21.6441 5.38217C21.8908 5.38217 22.0941 5.46217 22.2541 5.62217C22.4208 5.7755 22.5041 5.96883 22.5041 6.20217C22.5041 6.4355 22.4208 6.63217 22.2541 6.79217C22.0941 6.9455 21.8908 7.02217 21.6441 7.02217ZM22.3341 7.68217V13.2222H20.9341V7.68217H22.3341ZM25.3473 8.83217V11.5122C25.3473 11.6988 25.3907 11.8355 25.4773 11.9222C25.5707 12.0022 25.724 12.0422 25.9373 12.0422H26.5873V13.2222H25.7073C24.5273 13.2222 23.9373 12.6488 23.9373 11.5022V8.83217H23.2773V7.68217H23.9373V6.31217H25.3473V7.68217H26.5873V8.83217H25.3473ZM30.7143 7.60217C31.1343 7.60217 31.5076 7.6955 31.8343 7.88217C32.161 8.06217 32.4143 8.33217 32.5943 8.69217C32.781 9.0455 32.8743 9.47217 32.8743 9.97217V13.2222H31.4743V10.1622C31.4743 9.72217 31.3643 9.3855 31.1443 9.15217C30.9243 8.91217 30.6243 8.79217 30.2443 8.79217C29.8576 8.79217 29.551 8.91217 29.3243 9.15217C29.1043 9.3855 28.9943 9.72217 28.9943 10.1622V13.2222H27.5943V5.82217H28.9943V8.37217C29.1743 8.13217 29.4143 7.9455 29.7143 7.81217C30.0143 7.67217 30.3476 7.60217 30.7143 7.60217ZM33.8456 10.4322C33.8456 9.87217 33.9556 9.3755 34.1756 8.94217C34.4023 8.50883 34.709 8.1755 35.0956 7.94217C35.4823 7.70883 35.9123 7.59217 36.3856 7.59217C36.7456 7.59217 37.089 7.67217 37.4156 7.83217C37.7423 7.9855 38.0023 8.19217 38.1956 8.45217V5.82217H39.6156V13.2222H38.1956V12.4022C38.0223 12.6755 37.779 12.8955 37.4656 13.0622C37.1523 13.2288 36.789 13.3122 36.3756 13.3122C35.909 13.3122 35.4823 13.1922 35.0956 12.9522C34.709 12.7122 34.4023 12.3755 34.1756 11.9422C33.9556 11.5022 33.8456 10.9988 33.8456 10.4322ZM38.2056 10.4522C38.2056 10.1122 38.139 9.82217 38.0056 9.58217C37.8723 9.3355 37.6923 9.14883 37.4656 9.02217C37.239 8.88883 36.9956 8.82217 36.7356 8.82217C36.4756 8.82217 36.2356 8.8855 36.0156 9.01217C35.7956 9.13883 35.6156 9.3255 35.4756 9.57217C35.3423 9.81217 35.2756 10.0988 35.2756 10.4322C35.2756 10.7655 35.3423 11.0588 35.4756 11.3122C35.6156 11.5588 35.7956 11.7488 36.0156 11.8822C36.2423 12.0155 36.4823 12.0822 36.7356 12.0822C36.9956 12.0822 37.239 12.0188 37.4656 11.8922C37.6923 11.7588 37.8723 11.5722 38.0056 11.3322C38.139 11.0855 38.2056 10.7922 38.2056 10.4522ZM42.383 8.54217C42.563 8.24883 42.7963 8.01883 43.083 7.85217C43.3763 7.6855 43.7096 7.60217 44.083 7.60217V9.07217H43.713C43.273 9.07217 42.9396 9.1755 42.713 9.38217C42.493 9.58883 42.383 9.94883 42.383 10.4622V13.2222H40.983V7.68217H42.383V8.54217ZM44.6659 10.4322C44.6659 9.87217 44.7759 9.3755 44.9959 8.94217C45.2226 8.50883 45.5259 8.1755 45.9059 7.94217C46.2926 7.70883 46.7226 7.59217 47.1959 7.59217C47.6093 7.59217 47.9693 7.6755 48.2759 7.84217C48.5893 8.00883 48.8393 8.21883 49.0259 8.47217V7.68217H50.4359V13.2222H49.0259V12.4122C48.8459 12.6722 48.5959 12.8888 48.2759 13.0622C47.9626 13.2288 47.5993 13.3122 47.1859 13.3122C46.7193 13.3122 46.2926 13.1922 45.9059 12.9522C45.5259 12.7122 45.2226 12.3755 44.9959 11.9422C44.7759 11.5022 44.6659 10.9988 44.6659 10.4322ZM49.0259 10.4522C49.0259 10.1122 48.9593 9.82217 48.8259 9.58217C48.6926 9.3355 48.5126 9.14883 48.2859 9.02217C48.0593 8.88883 47.8159 8.82217 47.5559 8.82217C47.2959 8.82217 47.0559 8.8855 46.8359 9.01217C46.6159 9.13883 46.4359 9.3255 46.2959 9.57217C46.1626 9.81217 46.0959 10.0988 46.0959 10.4322C46.0959 10.7655 46.1626 11.0588 46.2959 11.3122C46.4359 11.5588 46.6159 11.7488 46.8359 11.8822C47.0626 12.0155 47.3026 12.0822 47.5559 12.0822C47.8159 12.0822 48.0593 12.0188 48.2859 11.8922C48.5126 11.7588 48.6926 11.5722 48.8259 11.3322C48.9593 11.0855 49.0259 10.7922 49.0259 10.4522ZM59.4833 7.68217L57.8633 13.2222H56.3533L55.3433 9.35217L54.3333 13.2222H52.8133L51.1833 7.68217H52.6033L53.5833 11.9022L54.6433 7.68217H56.1233L57.1633 11.8922L58.1433 7.68217H59.4833Z" fill="white"/>
<defs>
<filter id="filter0_d_655_886" x="0" y="0" width="70" height="28" filterUnits="userSpaceOnUse" color-interpolation-filters="sRGB">
<feFlood flood-opacity="0" result="BackgroundImageFix"/>
<feColorMatrix in="SourceAlpha" type="matrix" values="0 0 0 0 0 0 0 0 0 0 0 0 0 0 0 0 0 0 127 0" result="hardAlpha"/>
<feOffset dy="4"/>
<feGaussianBlur stdDeviation="2"/>
<feComposite in2="hardAlpha" operator="out"/>
<feColorMatrix type="matrix" values="0 0 0 0 0 0 0 0 0 0 0 0 0 0 0 0 0 0 0.25 0"/>
<feBlend mode="normal" in2="BackgroundImageFix" result="effect1_dropShadow_655_886"/>
<feBlend mode="normal" in="SourceGraphic" in2="effect1_dropShadow_655_886" result="shape"/>
</filter>
<linearGradient id="paint0_linear_655_886" x1="2.51675" y1="-1" x2="43.2003" y2="24.4953" gradientUnits="userSpaceOnUse">
<stop stop-color="#00B2FF"/>
<stop offset="1" stop-color="#194886"/>
</linearGradient>
</defs>
</svg>
